<svg xmlns="http://www.w3.org/2000/svg" viewBox="0 0 100 100"><rect width="100" height="100" rx="22" fill="#741c47"/><path fill="#ffffff" transform="translate(25.16 60.20) scale(0.04244)" d="M458.1 -867.8V-772.2L472.9 -739.9V223.3Q472.9 268.1 480.8 285.6Q488.7 303.1 504.1 312.1L531.7 321.5Q552.6 335 564.1 352.3Q575.7 369.5 575.7 395.3Q575.7 428.3 555.1 447.4Q534.5 466.5 498.4 466.5H119.9Q84.3 466.5 63.4 447.6Q42.6 428.7 42.6 395.3Q42.6 369.5 54.1 352.6Q65.7 335.7 86.6 321.5L106.8 312.1Q122.6 303 130.3 285.6Q138 268.1 138 223.3V-619.2Q138 -657.7 128.6 -672.8Q119.2 -688 101 -696.4L73.7 -702Q52.3 -714 41 -728.5Q29.8 -743.1 29.8 -766.1Q29.8 -792.4 45.7 -810.5Q61.7 -828.5 98.7 -844.1L258.4 -910.5Q302.7 -929.1 331.9 -937Q361.1 -944.8 387.6 -944.8Q421.3 -944.8 439.7 -923.4Q458.1 -902 458.1 -867.8ZM409.8 -598.9 352.8 -672Q429.9 -800.8 529.9 -874.1Q629.9 -947.3 756.7 -947.3Q868.9 -947.3 955.6 -889.7Q1042.2 -832.1 1091.6 -729.2Q1141 -626.2 1141 -488.4Q1141 -329.4 1080.4 -214Q1019.8 -98.5 914.8 -36.4Q809.9 25.8 676.2 25.8Q563.1 25.8 476.9 -26.8Q390.7 -79.3 331.8 -180.1L421.2 -293.8Q460.7 -216.8 508.2 -184.8Q555.7 -152.8 610.5 -152.8Q663.9 -152.8 705.3 -187.3Q746.8 -221.8 770.6 -288.3Q794.4 -354.8 794.4 -450.5Q794.4 -549.5 769.3 -614.9Q744.2 -680.2 700.9 -712.8Q657.6 -745.4 602.3 -745.4Q543.5 -745.4 494.8 -709.5Q446.1 -673.6 409.8 -598.9Z"/></svg>
